<?xml version="1.0" standalone="no"?>
<!DOCTYPE svg PUBLIC "-//W3C//DTD SVG 20010904//EN"
 "http://www.w3.org/TR/2001/REC-SVG-20010904/DTD/svg10.dtd">
<svg version="1.0" xmlns="http://www.w3.org/2000/svg"
 width="1024.000000pt" height="1024.000000pt" viewBox="0 0 1024.000000 1024.000000"
 preserveAspectRatio="xMidYMid meet">
<metadata>
Created by potrace 1.11, written by Peter Selinger 2001-2013
</metadata>
<g transform="translate(0.000000,1024.000000) scale(0.100000,-0.100000)"
fill="#000000" stroke="none">
<path d="M609 8080 c-68 -20 -139 -91 -158 -157 -5 -17 -9 -1257 -9 -2799 -1
-3081 -7 -2825 69 -2902 72 -72 34 -69 909 -67 702 1 789 3 820 17 51 24 98
71 120 120 19 42 19 81 20 1427 0 762 2 1386 4 1388 1 2 36 -42 77 -97 41 -55
124 -167 184 -248 143 -193 270 -364 439 -592 75 -102 146 -196 156 -210 11
-14 126 -169 256 -345 131 -176 269 -363 308 -416 39 -52 80 -108 91 -123 11
-16 25 -33 30 -40 6 -6 48 -63 95 -126 46 -63 88 -119 92 -125 5 -5 60 -80
123 -165 63 -85 118 -159 122 -165 5 -5 24 -32 43 -60 19 -27 38 -52 41 -55 4
-3 27 -33 52 -66 35 -48 59 -68 104 -90 l58 -29 969 -1 c1066 -2 1024 -4 1086
59 18 18 41 50 53 72 21 40 21 43 23 995 1 525 2 958 3 963 0 4 471 7 1045 7
1153 0 1083 -4 1154 63 19 18 43 50 54 72 20 39 21 57 25 639 l4 598 -26 54
c-28 56 -90 107 -147 119 -17 4 -499 8 -1072 9 l-1041 1 0 353 c0 195 3 356 7
358 4 3 639 5 1410 5 1052 0 1412 3 1442 11 35 11 89 55 121 99 30 40 32 98
31 690 -1 499 -3 608 -15 629 -33 58 -69 94 -114 116 l-49 22 -2361 1 c-1926
0 -2370 -2 -2406 -13 -58 -17 -114 -65 -141 -121 l-22 -46 0 -1415 c0 -779 -4
-1412 -8 -1407 -4 4 -121 166 -260 358 -140 193 -349 476 -464 630 -116 154
-299 399 -408 545 -108 146 -201 270 -205 275 -5 6 -30 39 -56 75 -26 36 -51
70 -55 75 -4 6 -138 188 -297 405 -160 217 -293 397 -297 398 -5 2 -8 10 -8
17 0 7 -4 15 -8 17 -4 2 -30 34 -56 71 -51 72 -95 106 -161 124 -46 13 -1751
16 -1796 3z"/>
</g>
</svg>
